#N canvas 0 18 450 300 12;
#X obj 42 42 inlet;
#X obj 42 65 t b;
#X obj 42 88 array size \$1;
#X obj 42 142 until;
#X obj 42 165 f;
#X obj 79 165 + 1;
#X obj 38 213 array get \$1 0 1;
#X obj 42 188 t f f;
#X obj 162 206 outlet;
#X obj 38 236 outlet;
#X obj 41 117 t f b;
#X msg 111 134 0;
#X connect 0 0 1 0;
#X connect 1 0 2 0;
#X connect 2 0 10 0;
#X connect 3 0 4 0;
#X connect 4 0 5 0;
#X connect 4 0 7 0;
#X connect 5 0 4 1;
#X connect 6 0 9 0;
#X connect 7 0 6 0;
#X connect 7 1 8 0;
#X connect 10 0 3 0;
#X connect 10 1 11 0;
#X connect 11 0 4 1;
