#N canvas 600 347 450 300 12;
#X obj 46 8 inlet;
#X obj 48 46 spigot;
#X obj 130 20 inlet;
#X obj 130 43 t f f;
#X obj 223 66 sel 1;
#X obj 204 32 array define \$2 36;
#X obj 48 69 array-iter \$1;
#X obj 314 121 t b f;
#X obj 314 168 array set \$2;
#X obj 95 120 array get \$2 0 1;
#X obj 18 131 >;
#X obj 18 178 f;
#X obj 18 154 sel 1;
#X obj 18 203 array set \$2;
#X obj 224 97 array-iter \$2;
#X msg 314 144 -1;
#X obj 18 105 t f f;
#X obj 108 88 t f f;
#X connect 0 0 1 0;
#X connect 1 0 6 0;
#X connect 2 0 3 0;
#X connect 3 0 1 1;
#X connect 3 1 4 0;
#X connect 4 0 14 0;
#X connect 6 0 16 0;
#X connect 6 1 17 0;
#X connect 7 0 15 0;
#X connect 7 1 8 1;
#X connect 9 0 10 1;
#X connect 10 0 12 0;
#X connect 11 0 13 0;
#X connect 12 0 11 0;
#X connect 14 1 7 0;
#X connect 15 0 8 0;
#X connect 16 0 10 0;
#X connect 16 1 11 1;
#X connect 17 0 9 0;
#X connect 17 1 13 1;
