#N canvas 227 60 937 632 12;
#N canvas 0 50 450 250 (subpatch) 0;
#X array keys 36 float 2;
#X coords 0 127 36 0 200 140 1 0 0;
#X restore 27 397 graph;
#N canvas 0 50 450 250 (subpatch) 0;
#X array raw 36 float 2;
#X coords 0 16384 36 0 200 140 1 0 0;
#X restore 269 400 graph;
#N canvas 0 18 450 300 sensor 0;
#X obj 93 2 polytouchin;
#X obj 92 110 pack f f f;
#X obj 96 47 t b f;
#X obj 90 71 f;
#X obj 12 170 unpack f f;
#X obj 12 247 array set keys;
#X obj 18 198 t b f;
#X obj 12 222 f;
#X obj 92 133 route 1 2 3;
#X obj 113 178 unpack f f;
#X obj 196 177 unpack f f;
#X obj 169 216 t b f;
#X obj 163 247 f;
#X obj 162 272 array set raw;
#X obj 237 239 +;
#X obj 292 208 t b f;
#X obj 213 207 * 128;
#X obj 201 131 t b a;
#X obj 270 137 outlet;
#X connect 0 0 2 0;
#X connect 0 1 1 1;
#X connect 0 2 3 1;
#X connect 1 0 8 0;
#X connect 2 0 3 0;
#X connect 2 1 1 2;
#X connect 3 0 1 0;
#X connect 4 0 6 0;
#X connect 4 1 7 1;
#X connect 6 0 7 0;
#X connect 6 1 5 1;
#X connect 7 0 5 0;
#X connect 8 0 4 0;
#X connect 8 1 9 0;
#X connect 8 2 17 0;
#X connect 9 0 11 0;
#X connect 9 1 16 0;
#X connect 10 0 11 0;
#X connect 10 1 15 0;
#X connect 11 0 12 0;
#X connect 11 1 13 1;
#X connect 12 0 13 0;
#X connect 14 0 12 1;
#X connect 15 0 14 0;
#X connect 15 1 14 1;
#X connect 16 0 14 0;
#X connect 17 0 18 0;
#X connect 17 1 10 0;
#X restore 45 52 pd sensor;
#X obj 92 77 tgl 18 0 empty empty empty 0 -9 0 12 #fcfcfc #000000 #000000 0 1;
#X obj 140 78 tgl 18 0 empty empty empty 0 -9 0 12 #fcfcfc #000000 #000000 0 1;
#N canvas 0 50 450 250 (subpatch) 0;
#X array calibrated 34 float 3;
#A 0 0 0 0 0 0 0 0 0 0 0 0 0 0 0 0 0 0 0 0 0 0 0 0 0 0 0 0 0 0 0 0 0 0 0;
#X coords 0 1 34 0 200 140 1 0 0;
#X restore 512 407 graph;
#N canvas 671 266 461 407 calibration 0;
#X obj 75 126 calibration keys floor;
#X obj 248 129 calibration keys max;
#X obj 45 156 array-iter keys;
#X obj 129 248 array get floor 0 1;
#X obj 278 248 array get max 0 1;
#X obj 46 348 array set calibrated;
#X obj 105 223 t f f f;
#X obj 46 289 expr ($f1 - $f2) / ($f3 - $f2);
#X obj 46 312 clip 0 1;
#X obj 59 187 > 1;
#X obj 128 193 t f f;
#X obj 40 229 spigot;
#X obj 110 312 - 2;
#X obj 40 9 inlet;
#X obj 209 38 inlet;
#X obj 299 38 inlet;
#X obj 46 43 t b b b b;
#X obj 43 80 outlet;
#X connect 2 0 11 0;
#X connect 2 1 10 0;
#X connect 3 0 7 1;
#X connect 4 0 7 2;
#X connect 6 0 12 0;
#X connect 6 1 3 0;
#X connect 6 2 4 0;
#X connect 7 0 8 0;
#X connect 8 0 5 0;
#X connect 9 0 11 1;
#X connect 10 0 6 0;
#X connect 10 1 9 0;
#X connect 11 0 7 0;
#X connect 12 0 5 1;
#X connect 13 0 16 0;
#X connect 14 0 0 1;
#X connect 15 0 1 1;
#X connect 16 0 17 0;
#X connect 16 1 2 0;
#X connect 16 2 0 0;
#X connect 16 3 1 0;
#X restore 45 104 pd calibration;
#N canvas 0 18 1231 493 mapping1 0;
#X obj 179 158 array-iter calibrated;
#X obj 569 146 array sum weighted;
#X floatatom 547 219 5 0 0 0 - - - 0;
#X obj 406 156 array max calibrated;
#X obj 219 115 t b b;
#X obj 742 233 + 50;
#X obj 616 246 *;
#X obj 610 284 array set weighted;
#X obj 761 283 array define weighted 34;
#X obj 204 239 /;
#X obj 207 310 array set normalized;
#X obj 383 275 array define normalized 34;
#X obj 590 166 array-iter normalized;
#X obj 644 192 array sum normalized;
#X obj 603 206 /;
#X obj 567 112 t b b b;
#X obj 558 183 sel 0;
#X obj 30 372 dac~;
#X obj 82 263 osc~;
#X obj 22 295 phasor~;
#X obj 22 318 cos~;
#X obj 22 341 *~;
#X obj 117 320 line~;
#X msg 113 296 \$1 50;
#X obj 17 168 mtof;
#X obj 79 190 * 2;
#X obj 84 240 line~;
#X obj 28 246 line~;
#X msg 24 222 \$1 5;
#X msg 79 216 \$1 5;
#X obj 413 200 > 0.1;
#X obj 404 230 spigot;
#X obj 259 226 *;
#X obj 533 42 inlet;
#X obj 280 33 inlet;
#X obj 280 56 t b b;
#X connect 0 0 9 0;
#X connect 0 1 10 1;
#X connect 1 0 16 0;
#X connect 2 0 31 0;
#X connect 3 0 9 1;
#X connect 3 0 30 0;
#X connect 3 0 32 0;
#X connect 4 0 0 0;
#X connect 4 1 3 0;
#X connect 5 0 6 1;
#X connect 6 0 7 0;
#X connect 9 0 10 0;
#X connect 12 0 14 0;
#X connect 12 1 7 1;
#X connect 12 1 5 0;
#X connect 13 0 14 1;
#X connect 14 0 6 0;
#X connect 15 0 1 0;
#X connect 15 1 12 0;
#X connect 15 2 13 0;
#X connect 16 1 2 0;
#X connect 18 0 20 0;
#X connect 19 0 20 0;
#X connect 20 0 21 0;
#X connect 21 0 17 0;
#X connect 21 0 17 1;
#X connect 22 0 21 1;
#X connect 23 0 22 0;
#X connect 24 0 25 0;
#X connect 24 0 28 0;
#X connect 25 0 29 0;
#X connect 26 0 18 0;
#X connect 27 0 19 0;
#X connect 28 0 27 0;
#X connect 29 0 26 0;
#X connect 30 0 31 1;
#X connect 31 0 24 0;
#X connect 32 0 23 0;
#X connect 33 0 32 1;
#X connect 34 0 35 0;
#X connect 35 0 15 0;
#X connect 35 1 4 0;
#X restore 263 156 pd mapping1;
#X obj 319 130 tgl 18 0 empty empty empty 0 -9 0 12 #fcfcfc #000000 #000000 0 1;
#X obj 503 92 array-iter calibrated;
#X obj 503 115 > 0.2;
#X obj 503 138 array set pressed;
#X obj 503 160 array define pressed 34;
#X obj 480 193 array sum pressed;
#X floatatom 480 216 5 0 0 0 - - - 0;
#X obj 481 50 t b b;
#X obj 480 238 change;
#X obj 480 267 sel 1 2;
#X obj 581 245 array-iter pressed;
#X obj 581 273 == 1;
#X obj 581 296 sel 1;
#X obj 704 280 + 50;
#X obj 660 333 list store;
#X msg 661 307 append \$1;
#X obj 656 285 f;
#X obj 489 297 t b b b;
#X listbox 660 356 20 0 0 0 - - - 0;
#X connect 2 0 6 0;
#X connect 3 0 6 1;
#X connect 4 0 6 2;
#X connect 6 0 7 0;
#X connect 6 0 15 0;
#X connect 8 0 7 1;
#X connect 9 0 10 0;
#X connect 9 1 11 1;
#X connect 10 0 11 0;
#X connect 13 0 14 0;
#X connect 14 0 16 0;
#X connect 15 0 13 0;
#X connect 15 1 9 0;
#X connect 16 0 17 0;
#X connect 17 0 25 0;
#X connect 17 1 25 0;
#X connect 18 0 19 0;
#X connect 18 1 21 0;
#X connect 19 0 20 0;
#X connect 20 0 24 0;
#X connect 21 0 24 1;
#X connect 22 0 26 0;
#X connect 23 0 22 0;
#X connect 24 0 23 0;
#X connect 25 0 22 0;
#X connect 25 1 18 0;
#X connect 25 2 22 1;
