#N canvas 161 70 1138 613 12;
#X obj 109 98 polytouchin;
#X obj 108 206 pack f f f;
#X obj 112 143 t b f;
#X obj 106 167 f;
#X obj 47 11 notein;
#X obj 46 44 pack f f f;
#X obj 149 59 tgl 18 0 empty empty empty 0 -9 0 12 #fcfcfc #000000 #000000 0 1;
#X obj 47 79 spigot;
#X obj 47 102 print;
#N canvas 0 50 450 250 (subpatch) 0;
#X array keys 36 float 2;
#X coords 0 127 36 0 200 140 1 0 0;
#X restore 27 397 graph;
#X obj 28 266 unpack f f;
#X obj 28 343 array set keys;
#X obj 34 294 t b f;
#X obj 28 318 f;
#X obj 108 229 route 1 2 3;
#N canvas 0 50 450 250 (subpatch) 0;
#X array raw 36 float 2;
#X coords 0 4096 36 0 200 140 1 0 0;
#X restore 269 400 graph;
#X obj 129 274 unpack f f;
#X obj 212 273 unpack f f;
#X obj 185 312 t b f;
#X obj 179 343 f;
#X obj 178 368 array set raw;
#X obj 229 303 * 32;
#X obj 253 335 +;
#X obj 308 304 t b f;
#X obj 262 161 timer;
#X obj 263 140 t b b;
#X floatatom 332 159 5 0 0 0 - - - 0;
#X obj 262 184 expr 1000/$f1;
#X floatatom 262 207 5 0 0 0 - - - 0;
#X obj 263 117 route 1;
#X obj 438 234 array get keys;
#X obj 435 184 bng 18 250 50 0 empty empty empty 0 -9 0 12 #fcfcfc #000000 #000000;
#X listbox 27 548 110 0 0 0 - - - 0;
#X listbox 29 579 167 0 0 0 - - - 0;
#X obj 440 273 array get raw;
#X connect 0 0 2 0;
#X connect 0 1 1 1;
#X connect 0 2 3 1;
#X connect 1 0 14 0;
#X connect 2 0 3 0;
#X connect 2 1 1 2;
#X connect 3 0 1 0;
#X connect 4 0 5 0;
#X connect 4 1 5 1;
#X connect 4 2 5 2;
#X connect 5 0 7 0;
#X connect 6 0 7 1;
#X connect 7 0 8 0;
#X connect 10 0 12 0;
#X connect 10 1 13 1;
#X connect 12 0 13 0;
#X connect 12 1 11 1;
#X connect 13 0 11 0;
#X connect 14 0 10 0;
#X connect 14 0 29 0;
#X connect 14 1 16 0;
#X connect 14 2 17 0;
#X connect 16 0 18 0;
#X connect 16 1 21 0;
#X connect 17 0 18 0;
#X connect 17 1 23 0;
#X connect 18 0 19 0;
#X connect 18 0 30 0;
#X connect 18 0 34 0;
#X connect 18 1 20 1;
#X connect 19 0 20 0;
#X connect 21 0 22 0;
#X connect 22 0 19 1;
#X connect 23 0 22 0;
#X connect 23 1 22 1;
#X connect 24 0 26 0;
#X connect 24 0 27 0;
#X connect 25 0 24 0;
#X connect 25 1 24 1;
#X connect 27 0 28 0;
#X connect 29 0 25 0;
#X connect 30 0 32 0;
#X connect 31 0 30 0;
#X connect 34 0 33 0;
