#N canvas 0 19 1405 1027 12;
#X obj 131 117 button_gesture_model;
#X msg 131 69 button-state \$1;
#X obj 130 27 tgl 20 0 empty empty empty 0 -10 0 12 #fcfcfc #000000 #000000 0 1;
#X obj 96 84 bng 20 250 50 0 empty empty empty 0 -10 0 12 #fcfcfc #000000 #000000;
#X obj 131 142 print;
#X floatatom 233 30 5 0 0 0 - - - 0;
#X msg 367 92 button-state \$1;
#X obj 366 50 tgl 20 0 empty empty empty 0 -10 0 12 #fcfcfc #000000 #000000 0 1;
#X obj 332 107 bng 20 250 50 0 empty empty empty 0 -10 0 12 #fcfcfc #000000 #000000;
#X obj 367 165 print;
#X floatatom 469 53 5 0 0 0 - - - 0;
#X obj 367 140 button_gesture_model 1;
#X connect 0 0 4 0;
#X connect 1 0 0 0;
#X connect 2 0 1 0;
#X connect 3 0 0 0;
#X connect 5 0 1 0;
#X connect 6 0 11 0;
#X connect 7 0 6 0;
#X connect 8 0 11 0;
#X connect 10 0 6 0;
#X connect 11 0 9 0;
